<?xml version="1.0" standalone="no"?>
<!DOCTYPE svg PUBLIC "-//W3C//DTD SVG 20010904//EN"
 "http://www.w3.org/TR/2001/REC-SVG-20010904/DTD/svg10.dtd">
<svg version="1.0" xmlns="http://www.w3.org/2000/svg"
 width="204.000000pt" height="204.000000pt" viewBox="0 0 204.000000 204.000000"
 preserveAspectRatio="xMidYMid meet">
<metadata>
Created by potrace 1.14, written by Peter Selinger 2001-2017
</metadata>
<g transform="translate(0.000000,204.000000) scale(0.100000,-0.100000)"
fill="#000000" stroke="none">
<path d="M870 2030 c0 -4 -8 -7 -17 -7 -56 0 -84 -4 -79 -11 3 -5 -5 -8 -17
-7 -12 1 -28 -2 -35 -8 -7 -6 -27 -12 -45 -14 -17 -2 -35 -9 -39 -16 -4 -6 -8
-8 -8 -3 0 5 -7 3 -15 -4 -8 -6 -20 -8 -26 -4 -7 4 -9 3 -6 -3 6 -9 -16 -21
-35 -19 -3 1 -17 -9 -30 -22 -14 -12 -28 -19 -31 -15 -4 3 -7 1 -7 -5 0 -7 -7
-12 -15 -12 -8 0 -15 -4 -15 -10 0 -5 -6 -10 -14 -10 -8 0 -21 -8 -28 -19 -7
-10 -16 -19 -21 -20 -13 -2 -143 -121 -132 -121 3 0 -8 -14 -25 -31 -16 -18
-30 -38 -30 -44 0 -7 -7 -15 -15 -19 -8 -3 -23 -21 -32 -40 -9 -19 -20 -33
-24 -30 -4 2 -6 -5 -4 -16 2 -11 -3 -23 -11 -28 -8 -5 -16 -18 -17 -30 -1 -14
-6 -21 -15 -17 -9 3 -10 0 -3 -12 6 -12 4 -21 -7 -31 -12 -9 -12 -11 -2 -6 13
7 13 6 0 -10 -8 -10 -15 -23 -17 -30 -21 -84 -29 -106 -34 -106 -3 0 -4 -12
-1 -26 3 -16 1 -25 -5 -21 -5 3 -10 0 -10 -8 0 -8 4 -12 9 -9 4 3 8 0 8 -5 0
-6 -4 -11 -9 -11 -5 0 -9 -65 -9 -145 -1 -111 2 -144 11 -138 8 5 8 2 -1 -9
-8 -10 -9 -19 -3 -22 5 -4 10 -14 10 -24 2 -46 6 -62 15 -62 5 0 6 -3 3 -7 -4
-3 -2 -12 4 -20 9 -10 8 -13 -2 -13 -10 -1 -8 -5 5 -15 10 -7 15 -18 11 -24
-3 -6 -2 -11 4 -11 6 0 8 -7 5 -15 -4 -8 -1 -15 7 -15 7 0 10 -3 7 -6 -4 -3 0
-17 7 -31 8 -15 11 -31 8 -36 -3 -6 -1 -7 5 -3 7 4 12 2 12 -5 0 -7 8 -21 17
-32 10 -11 12 -17 5 -13 -16 10 33 -63 56 -81 11 -9 12 -12 2 -8 -8 4 -6 -2 6
-12 12 -10 24 -26 28 -37 5 -15 9 -16 21 -6 8 7 15 9 15 5 0 -5 8 2 19 13 10
12 21 19 25 15 3 -3 6 -1 6 6 0 7 5 9 10 6 6 -4 9 -3 8 2 -4 10 39 53 45 46 3
-2 11 5 17 17 6 12 14 19 17 16 3 -2 18 9 34 27 16 17 29 28 29 24 0 -4 8 1
18 10 12 12 14 21 8 25 -7 5 -7 8 2 8 6 0 12 5 12 11 0 5 -4 7 -10 4 -5 -3
-10 0 -10 7 0 8 -11 15 -26 16 -14 1 -23 -1 -21 -6 3 -4 -5 -8 -16 -8 -45 -4
-65 -8 -61 -15 2 -4 -13 -13 -33 -20 -58 -19 -70 -18 -69 5 1 12 -2 24 -7 27
-5 3 -9 12 -10 20 -2 8 -6 19 -10 26 -4 6 -8 23 -9 37 -1 14 -5 26 -9 26 -3 0
-6 6 -7 13 -1 23 -11 92 -16 117 -9 41 -11 144 -3 158 5 6 3 12 -2 12 -6 0
-11 5 -11 11 0 5 4 8 8 5 5 -3 9 1 9 9 0 8 -3 12 -7 10 -4 -2 -7 2 -7 10 0 8
5 11 10 8 6 -4 8 3 5 15 -4 12 -3 22 1 22 3 0 6 16 5 35 -1 19 2 35 7 35 5 0
9 5 9 11 0 5 -6 7 -12 3 -7 -4 -6 1 3 12 9 10 17 27 18 37 3 40 5 47 13 47 5
0 6 5 3 10 -3 6 -2 10 4 10 6 0 8 6 5 14 -3 8 -1 17 5 20 6 4 7 14 4 23 -4 11
-3 14 5 9 7 -4 12 -4 13 1 2 28 10 46 30 74 13 19 17 29 8 25 -7 -4 -6 -1 3 7
10 8 18 19 18 26 0 6 5 11 10 11 6 0 10 7 10 15 0 8 5 15 10 15 6 0 10 7 10
15 0 8 5 15 10 15 6 0 10 7 10 16 0 8 4 13 8 10 5 -3 15 6 22 19 7 13 18 22
23 18 6 -3 7 -2 4 3 -5 9 84 104 98 104 3 0 17 12 30 26 14 15 25 23 25 19 0
-4 8 -1 18 8 10 10 22 14 27 10 4 -5 5 -3 2 3 -6 11 14 26 36 28 4 1 12 8 17
16 5 8 10 11 10 6 0 -5 6 -3 13 3 8 6 17 8 20 4 4 -3 7 0 7 7 0 7 3 10 7 7 3
-4 12 1 20 11 8 9 12 12 9 5 -3 -6 12 -3 33 8 22 10 47 19 56 19 8 0 15 6 15
13 0 8 4 7 10 -3 7 -11 10 -11 10 -2 0 7 4 11 9 7 5 -3 12 -1 15 4 4 5 17 8
31 7 13 -2 22 0 19 5 -2 4 14 7 36 6 22 -2 40 0 40 4 0 4 9 9 20 12 11 3 18 2
15 -2 -2 -5 9 -8 25 -7 17 1 30 5 30 9 0 4 10 3 21 -4 15 -8 19 -8 15 0 -4 6
-3 11 3 11 6 0 8 7 5 15 -5 11 -11 12 -24 5 -13 -7 -21 -6 -26 2 -5 7 -3 8 7
3 8 -5 11 -4 6 0 -10 12 -57 13 -50 1 4 -5 1 -6 -8 0 -16 11 -239 14 -239 4z"/>
<path d="M1733 1645 c-6 -7 -9 -16 -5 -20 4 -4 3 -6 -3 -5 -21 5 -36 0 -30
-10 6 -9 -8 -14 -28 -11 -5 1 -6 -2 -3 -7 3 -5 -6 -15 -19 -22 -14 -7 -25 -20
-25 -28 0 -9 -3 -12 -6 -9 -4 4 -15 -3 -25 -15 -11 -11 -19 -17 -19 -13 0 5
-16 -8 -35 -29 -29 -32 -33 -41 -24 -58 6 -11 13 -17 16 -14 3 3 14 1 24 -4
12 -7 22 -6 31 3 7 6 18 13 23 14 26 6 89 32 80 34 -5 0 1 4 15 8 32 10 50 3
43 -15 -3 -8 1 -14 8 -14 7 0 10 -3 6 -6 -3 -4 0 -19 9 -35 8 -16 12 -29 9
-29 -3 0 -1 -8 4 -18 10 -20 22 -66 23 -92 0 -8 5 -21 11 -27 6 -9 5 -13 -4
-13 -9 0 -10 -3 -4 -8 6 -4 10 -31 10 -59 0 -29 3 -53 6 -53 3 0 5 -15 3 -32
-1 -18 -5 -60 -8 -93 -3 -33 -8 -73 -11 -90 -4 -16 -7 -38 -8 -47 -1 -10 -5
-18 -10 -18 -5 0 -7 -6 -4 -12 2 -7 -4 -34 -13 -60 -10 -26 -15 -49 -12 -52 2
-3 -2 -8 -11 -12 -9 -3 -14 -11 -11 -19 3 -7 -1 -19 -9 -26 -7 -8 -12 -20 -9
-27 2 -6 -1 -12 -6 -12 -5 0 -17 -18 -26 -40 -9 -22 -18 -40 -22 -40 -3 0 -2
5 2 12 4 7 3 8 -4 4 -6 -4 -9 -13 -5 -21 3 -8 0 -15 -6 -15 -6 0 -11 -7 -11
-15 0 -8 -7 -15 -16 -15 -8 0 -12 -5 -9 -10 3 -6 1 -10 -5 -10 -6 0 -9 -4 -6
-9 3 -5 -12 -24 -34 -43 -22 -20 -37 -38 -33 -42 3 -3 -1 -6 -11 -6 -9 0 -14
-4 -11 -10 6 -10 -9 -15 -30 -10 -5 1 -7 -1 -3 -5 9 -9 -32 -55 -49 -55 -7 0
-13 -4 -13 -9 0 -5 -16 -16 -35 -25 -19 -9 -39 -24 -44 -34 -6 -9 -11 -13 -11
-8 0 5 -10 1 -22 -10 -12 -10 -18 -13 -14 -6 7 11 4 11 -12 1 -12 -7 -18 -17
-15 -23 4 -5 -1 -7 -10 -3 -9 3 -23 -1 -32 -9 -8 -9 -15 -12 -15 -8 0 4 -10
-1 -22 -12 -12 -10 -18 -13 -14 -6 4 6 2 12 -3 12 -6 0 -11 -4 -11 -9 0 -5
-15 -12 -32 -16 -37 -9 -47 -12 -50 -15 -2 -1 -12 -3 -23 -5 -11 -2 -33 -6
-50 -10 -16 -3 -40 -6 -53 -6 -15 1 -21 -3 -16 -11 4 -7 3 -8 -4 -4 -18 11
-53 16 -47 6 3 -4 -13 -6 -34 -4 -28 2 -41 -1 -45 -12 -3 -8 -2 -12 3 -9 6 3
14 -3 20 -12 7 -12 10 -13 11 -4 0 10 3 11 14 2 11 -9 15 -9 19 1 4 11 6 11 6
0 1 -10 31 -13 131 -11 72 0 133 5 136 10 3 5 11 9 17 9 7 0 6 -4 -3 -10 -22
-14 -3 -12 28 4 15 7 37 12 50 11 12 -1 22 2 22 7 0 5 5 6 10 3 6 -3 10 -1 10
6 0 8 4 8 15 -1 12 -10 15 -10 15 0 0 7 7 10 15 6 8 -3 14 0 12 7 -1 7 8 11
21 11 12 -1 22 2 22 6 0 6 20 15 50 20 3 1 12 8 21 16 9 8 26 16 37 17 11 0
19 4 16 8 -2 4 9 12 24 18 16 7 40 23 55 37 15 14 27 22 27 20 0 -7 27 15 78
63 20 19 36 38 35 42 -2 4 6 10 16 14 10 3 24 17 31 30 7 14 17 25 22 25 4 0
8 7 8 16 0 8 5 12 10 9 6 -3 10 3 10 14 0 11 9 26 20 34 11 8 17 17 13 20 -3
4 -1 7 6 7 7 0 9 5 6 10 -3 6 -1 10 4 10 6 0 11 7 11 15 0 8 5 15 10 15 6 0
10 11 10 24 0 13 4 26 8 28 4 2 17 22 29 45 11 23 15 40 9 37 -6 -3 -2 2 8 10
14 11 15 16 6 16 -11 0 -11 3 -2 12 7 7 12 20 12 30 0 10 4 18 10 18 5 0 8 10
7 22 -2 12 1 40 8 62 6 23 11 53 10 69 0 15 3 27 7 27 5 0 4 8 -1 18 -7 13 -6
23 2 32 8 9 9 11 0 6 -12 -7 -12 11 0 31 4 6 1 14 -5 16 -10 4 -10 6 0 6 7 1
10 5 7 11 -11 18 -14 51 -4 45 5 -4 9 -1 9 4 0 6 -5 11 -11 11 -6 0 -9 6 -6
14 3 7 0 19 -6 25 -8 8 -8 11 2 11 9 0 10 4 4 13 -6 6 -11 19 -12 27 -2 34 -7
56 -15 68 -4 6 -5 12 -1 12 3 0 -1 13 -9 29 -12 22 -12 31 -3 41 9 10 9 11 0
6 -12 -6 -15 0 -12 20 0 4 -5 10 -13 15 -7 4 -13 14 -13 21 0 17 -36 91 -48
99 -5 3 -8 9 -8 13 2 8 -31 59 -44 68 -5 4 -6 8 -1 8 5 0 -1 8 -12 19 -12 10
-19 21 -15 25 3 3 0 6 -8 7 -8 0 -21 2 -29 4 -8 1 -20 -3 -27 -10z"/>
<path d="M896 1569 c3 -5 0 -9 -6 -9 -7 0 -8 -6 -2 -17 12 -23 4 -45 -11 -36
-9 5 -9 3 0 -8 7 -8 10 -31 8 -52 -1 -20 1 -34 6 -31 5 3 6 -2 3 -10 -3 -9
-11 -13 -18 -9 -6 3 -3 -2 6 -13 11 -13 14 -24 8 -34 -5 -8 -6 -18 -3 -22 2
-5 -1 -16 -9 -25 -9 -12 -9 -15 0 -9 7 4 12 1 12 -8 0 -9 -5 -16 -11 -16 -5 0
-7 -5 -4 -10 4 -6 11 -8 16 -5 11 7 0 -24 -15 -44 -8 -11 -8 -13 1 -8 9 5 11
-6 9 -40 -1 -27 -5 -54 -9 -60 -4 -6 -3 -14 2 -17 5 -4 8 -22 6 -41 -2 -19 1
-32 6 -29 11 6 0 -25 -15 -45 -9 -12 -8 -13 2 -7 10 6 13 3 11 -10 -2 -11 0
-25 5 -33 6 -9 5 -12 -1 -8 -6 4 -14 0 -17 -9 -3 -8 -2 -13 2 -10 12 7 9 -55
-2 -73 -6 -10 -6 -12 2 -7 7 4 12 1 12 -8 0 -9 -5 -16 -11 -16 -5 0 -7 -5 -4
-10 4 -6 12 -7 18 -4 9 5 9 4 0 -6 -8 -9 -9 -19 -2 -31 8 -15 6 -17 -8 -12
-15 6 -16 4 -6 -9 7 -8 10 -18 6 -21 -3 -4 -1 -7 6 -7 8 0 11 -7 7 -15 -3 -8
-1 -15 4 -15 6 0 10 3 10 8 0 11 52 11 74 0 13 -7 16 -7 12 1 -4 6 -4 11 -1
11 4 0 16 -5 27 -11 13 -7 18 -7 14 -1 -4 7 7 9 33 6 45 -5 53 2 55 55 1 20 6
42 10 50 6 9 5 12 -2 7 -7 -4 -10 5 -8 29 2 19 0 35 -5 35 -5 0 -4 12 2 27 7
20 7 29 -1 31 -7 3 -5 12 7 25 10 12 12 17 4 12 -11 -6 -13 -4 -8 8 4 10 1 17
-6 17 -7 0 -8 3 -2 8 12 8 18 65 6 58 -11 -7 -1 46 13 63 8 11 8 13 -1 8 -9
-6 -11 2 -9 28 2 19 0 35 -5 35 -5 0 -4 12 2 27 7 20 7 29 -1 31 -7 3 -5 12 7
25 10 12 12 17 4 12 -11 -6 -13 -4 -8 8 4 10 1 17 -6 17 -8 0 -8 3 -2 8 14 9
14 45 0 54 -6 5 -6 8 0 8 11 0 13 110 1 128 -4 7 -3 12 1 12 5 0 9 11 9 25 0
14 -4 25 -9 25 -4 0 -5 5 -1 12 5 8 2 9 -9 5 -10 -4 -17 -1 -17 6 0 7 -3 8 -8
2 -4 -5 -20 -10 -37 -10 -16 0 -33 5 -37 10 -5 7 -8 6 -8 -1 0 -10 -18 -10
-82 -1 -15 2 -25 0 -22 -4z m4 -469 c0 -5 -5 -10 -11 -10 -5 0 -7 5 -4 10 3 6
8 10 11 10 2 0 4 -4 4 -10z"/>
<path d="M780 1372 c0 -8 -9 -12 -22 -10 -21 3 -23 -1 -23 -44 0 -27 -3 -48
-8 -48 -4 0 -2 -9 5 -20 11 -17 10 -22 -2 -30 -9 -6 -10 -10 -3 -10 8 0 9 -9
3 -29 -5 -19 -4 -33 3 -40 8 -8 7 -11 -2 -11 -11 0 -11 -3 0 -17 12 -14 12
-15 1 -9 -11 7 -12 4 -3 -13 9 -16 9 -21 0 -21 -8 0 -8 -4 1 -15 8 -10 9 -15
1 -15 -7 0 -7 -7 1 -26 10 -21 9 -27 -3 -35 -8 -5 -9 -9 -2 -9 8 0 9 -9 3 -29
-5 -19 -4 -33 3 -40 8 -8 7 -11 -3 -11 -13 0 -13 -2 0 -10 12 -8 12 -10 1 -10
-10 0 -11 -3 -2 -14 9 -11 8 -15 -5 -20 -15 -6 -15 -8 1 -26 12 -14 14 -20 5
-20 -10 0 -10 -3 1 -16 10 -13 10 -17 0 -24 -11 -6 -11 -9 0 -13 12 -5 12 -6
0 -6 -11 -1 -11 -4 0 -18 12 -14 12 -15 1 -9 -11 7 -12 4 -3 -13 9 -16 9 -21
0 -21 -8 0 -8 -4 1 -15 9 -11 9 -15 1 -15 -9 0 -9 -5 0 -21 8 -16 8 -23 -1
-29 -9 -6 -9 -9 1 -13 11 -4 11 -6 1 -6 -7 -1 -10 -6 -6 -13 11 -17 13 -69 3
-62 -5 3 -6 -2 -3 -11 4 -9 9 -13 12 -11 3 3 11 1 19 -5 7 -6 13 -8 13 -3 0
10 92 10 109 0 6 -4 11 -2 11 4 0 7 6 8 16 2 19 -11 54 -4 54 10 0 5 6 6 13 2
9 -6 9 -5 0 7 -10 12 -10 18 0 29 9 10 9 11 0 6 -16 -9 -17 6 -2 21 8 8 8 13
0 17 -8 5 -8 13 -1 26 7 14 6 23 -5 33 -8 8 -11 18 -7 22 4 4 -4 4 -17 0 -18
-5 -22 -4 -16 5 6 9 4 11 -6 4 -36 -22 -71 -2 -58 33 5 13 5 23 1 23 -9 0 -6
115 4 131 5 8 3 9 -5 4 -10 -6 -11 -3 -2 13 7 13 7 23 2 27 -6 3 -6 17 -1 35
5 17 5 30 0 30 -5 0 -5 13 0 30 5 18 5 32 -1 36 -5 3 -6 11 -2 17 9 16 11 47
3 52 -4 2 -4 27 0 55 4 27 4 50 1 50 -8 0 -4 116 4 129 3 6 1 11 -6 11 -8 0
-8 4 1 15 13 16 12 17 -37 18 -16 1 -31 6 -35 12 -5 6 -8 5 -8 -3z m-40 -552
c0 -5 -2 -10 -4 -10 -3 0 -8 5 -11 10 -3 6 -1 10 4 10 6 0 11 -4 11 -10z"/>
<path d="M1204 1371 c5 -7 -4 -9 -24 -7 -27 3 -31 1 -27 -15 3 -11 0 -19 -6
-19 -7 0 -5 -5 3 -10 8 -5 10 -10 5 -10 -6 0 -8 -26 -5 -70 3 -44 1 -70 -5
-70 -5 0 -3 -5 5 -10 8 -5 11 -10 5 -10 -5 0 -10 -18 -10 -40 0 -22 5 -40 10
-41 6 0 1 -4 -10 -9 -15 -6 -16 -9 -4 -9 9 -1 16 -8 16 -16 0 -8 -4 -12 -9 -9
-12 8 -10 -10 4 -24 7 -7 8 -12 2 -12 -5 0 -7 -28 -4 -70 3 -44 1 -70 -5 -70
-5 0 -3 -5 5 -10 8 -5 11 -10 5 -10 -5 0 -10 -20 -10 -44 0 -24 3 -42 8 -39 4
2 7 -1 7 -6 0 -6 -5 -11 -12 -11 -9 0 -9 -3 0 -12 15 -15 15 -28 1 -28 -5 0
-7 5 -3 12 4 7 3 8 -4 4 -9 -5 -9 -13 -2 -27 6 -11 8 -24 5 -29 -9 -14 -32
-12 -38 3 -4 10 -6 9 -6 0 -1 -7 -6 -13 -12 -13 -5 0 -8 4 -5 8 3 5 -1 9 -9 9
-8 0 -11 -5 -8 -10 4 -6 0 -8 -9 -5 -11 5 -14 -3 -13 -36 1 -22 -3 -47 -8 -53
-6 -9 -6 -13 2 -13 7 0 8 -8 1 -25 -7 -17 -6 -25 2 -25 6 0 17 -8 24 -17 9
-12 13 -13 14 -5 0 10 5 10 21 1 17 -9 23 -8 30 2 7 11 9 11 9 -1 0 -12 2 -13
9 -1 7 11 9 11 14 0 4 -11 6 -11 6 1 1 13 2 13 11 0 9 -13 10 -13 10 0 0 13 1
13 10 0 9 -13 10 -13 10 0 0 13 1 13 10 0 9 -13 10 -13 10 0 0 13 1 13 10 0 6
-10 10 -11 10 -2 0 6 5 12 11 12 5 0 7 -5 3 -12 -5 -7 -3 -8 5 -4 7 5 10 10 7
13 -2 3 -1 16 4 29 6 14 6 24 0 24 -5 0 -5 12 0 30 5 17 5 30 0 30 -5 0 -5 13
0 30 5 17 5 30 0 30 -5 0 -5 13 0 30 5 17 5 30 2 30 -9 0 -7 64 3 79 3 6 1 11
-5 11 -8 0 -8 6 0 20 8 14 8 20 0 20 -8 0 -8 6 0 20 8 14 8 20 0 20 -8 0 -8 6
0 20 8 14 8 20 0 20 -8 0 -8 6 0 20 8 14 8 20 0 20 -8 0 -8 6 0 20 8 14 8 20
0 20 -8 0 -8 6 0 20 8 14 8 20 0 20 -8 0 -8 6 0 20 8 14 8 20 0 20 -8 0 -8 6
0 20 8 14 8 20 0 20 -8 0 -8 6 0 20 8 14 8 20 0 20 -8 0 -8 6 0 20 8 14 8 20
0 20 -8 0 -8 6 0 20 8 14 8 20 0 20 -8 0 -8 6 0 20 8 14 8 20 0 20 -8 0 -8 6
0 20 6 11 7 20 2 20 -5 0 -8 11 -7 24 2 18 -2 23 -19 21 -11 0 -29 3 -40 8
-13 6 -16 6 -12 -2z"/>
</g>
</svg>
